<?xml version="1.0" encoding="UTF-8"?>
<svg id="Calque_2" data-name="Calque 2" xmlns="http://www.w3.org/2000/svg" viewBox="0 0 122.6 78.52">
  <defs>
    <style>
      .cls-1 {
        fill: #e5d6b9;
        stroke: #422918;
        stroke-miterlimit: 10;
      }

      .cls-2 {
        fill: #d0d1d3;
      }

      .cls-2, .cls-3 {
        stroke-width: 0px;
      }

      .cls-3 {
        fill: #aea68f;
      }
    </style>
  </defs>
  <g id="Calque_1-2" data-name="Calque 1">
    <path class="cls-2" d="m38.45,5c3.29-2.81,7.63-4.06,7.63-4.06,1.81-.52,5.86-1.69,8.64-.23,1.56.82,1.53,1.84,3.1,2.05,1.85.25,2.73-1.07,4.88-.88,1.71.15,1.7,1.02,3.38,1.16,2.17.17,2.9-1.24,4.78-1.26,2.49-.03,2.49,2.43,6.3,4.49,2.15,1.16,4.28,1.53,6.65,1.93,2.14.37,3.94.68,6.25.4,3.03-.36,4.27-1.4,6.6-2.15,4.13-1.32,7.85-.49,11.33.29,7.87,1.76,14.87,6.71,13.66,9.1-.69,1.38-3.73,1.15-4.38,2.8-.44,1.11.81,1.56,2.27,4.73.88,1.91,1.33,2.87,1.11,4.22-.24,1.55-1.1,2.09-.73,3.06.49,1.29,2.26,1.03,2.62,2.18.23.72-.35,1.22-2.06,3.82-1.39,2.12-2.09,3.2-2.06,3.82.09,1.85,2.4,1.93,2.55,3.84.12,1.53-1.25,2.97-2.06,3.82-1.61,1.69-2.73,1.68-3.8,3.05-1.07,1.37-.37,2.05-1,3.95-.76,2.3-2.14,2.75-3.77,5.1-2.51,3.6-.65,4.52-2.69,7.27-2.49,3.36-7.33,4.74-10.77,5.71-3.94,1.12-4.76,0-7.86,1.25-3.44,1.4-3.94,3.11-6.67,3.81-3.18.81-6.08-.6-7.51-1.3C62.95,71.18,26.81,14.95,38.45,5Z"/>
    <path class="cls-3" d="m.49,24.04c.92,1.48,2.47,1.02,3.78,2.69,1.92,2.44-.62,4.41.39,7.28,1.43,4.06,7.4,2.56,12.4,8.21,1.64,1.85,1.67,2.77,3.61,3.97,3,1.86,5.41,1.18,6.95,3.08,1.37,1.69-.13,2.72,1.21,4.6,1.42,1.99,3.59,1.53,6.58,3.59,2.07,1.44,1.77,2.17,3.61,3.97.31.31,5.22,4.97,12.65,5.27,5.09.21,7.56-1.79,10.17-.23.28.17.25.19,3.4,3.2,1.66,1.59,2.5,2.38,2.72,2.56,1.51,1.19,3.67,2.89,6.95,3.08,1.13.07,2.63.16,3.93-.63,2.06-1.25,2.18-3.85,2.24-5.1.16-3.53-1.75-4.65-.66-6.39.53-.84,1.17-.89,4.48-2.41,6.27-2.88,6.82-4.02,9.16-4.06,3.12-.05,4.89,1.91,5.49,1.42.9-.73-3.67-4.6-2.2-6.39.95-1.15,3.27-.06,5.26-1.39,2.5-1.67.39-4.41,2.96-8.16,1.99-2.9,4.21-2.68,4.83-4.97.66-2.44-1.64-3.55-.56-6,.76-1.72,2.17-1.8,2.26-3.06.12-1.63-2.22-1.82-4.29-4.61-1.51-2.04-.7-2.53-1.97-3.58-2.37-1.96-5.43-.44-7.23-2.19-1.7-1.65.24-3.78-1.32-4.98-1.67-1.29-4.43.74-9.49.87-3.41.08-6.48-1.02-12.62-3.23-4.27-1.54-4.15-1.85-6.85-2.7-1.43-.45-6.85-2.05-13.27-1.82-11.18.39-15.92,5.99-22.03,3.77-2.96-1.08-2.36-2.58-4.84-2.82-5.31-.52-8.83,6.3-16.61,6.85-2.65.19-3.13-.54-5.09.11C1.99,15.36-1.29,21.18.49,24.04Z"/>
    <path class="cls-1" d="m29.57,15.96c1.44-1.22,1.03-2.06,2.36-2.67,1.81-.83,3.31.39,6.25.4,2.7.01,4.55-1.01,6.22-1.64,10.84-4.11,26.21,3.46,32.39,2.52.33-.05,1.56-.27,2.12.26.57.54.29,1.72-.35,2.55-.84,1.09-2.08,1.27-2.09,1.78,0,.66,2.07.99,2.32,1.03,14.75,2.32,16.2,2.82,17.33,3.62,3.91,2.77,4.92,9.76,2.01,13.41-.73.92-2.15,2.18-2.06,3.82.08,1.45,1.27,1.9,1.87,3.2,1.07,2.33-.83,5.14-1.83,6.63-3.43,5.11-9.85,7.22-14.57,8.77-3.5,1.15-9.08,2.98-10.93,1.25-1.68-1.58.76-5.15-.46-5.62-1.08-.41-3.02,2.35-6.67,3.81-3.57,1.43-7.02.9-9.59.48-15.42-2.52-25.2-17.61-34.43-25.76-.56-.49-1.41-1.22-1.67-2.43-.57-2.72,2.69-4.16,3.44-8.29.46-2.55-.58-3.13.42-4.21,1.72-1.86,5.23-.64,7.93-2.91Z"/>
  </g>
</svg>